<svg width="16" height="16" viewBox="0 0 16 16" fill="none" xmlns="http://www.w3.org/2000/svg">
<path d="M8 0C12.4184 0 16 3.58018 16 7.99684C16.0017 10.0964 15.1772 12.1124 13.7047 13.6095C12.2322 15.1067 10.2297 15.9649 8.12962 15.9989C6.02951 16.033 4.00027 15.24 2.48 13.7913C0.959726 12.3427 0.0703908 10.3544 0.00400009 8.25593L0 7.99684L0.00319996 7.77293C0.1216 3.46023 3.656 0 8 0ZM8 7.19715H7.2L7.1064 7.20275C6.91196 7.22587 6.73275 7.31947 6.60273 7.46582C6.4727 7.61217 6.40089 7.8011 6.40089 7.99684C6.40089 8.19257 6.4727 8.3815 6.60273 8.52785C6.73275 8.6742 6.91196 8.7678 7.1064 8.79092L7.2 8.79652V11.1956L7.2056 11.2891C7.22666 11.4676 7.30726 11.6338 7.43441 11.7609C7.56155 11.888 7.72783 11.9686 7.9064 11.9897L8 11.9953H8.8L8.8936 11.9897C9.07217 11.9686 9.23844 11.888 9.36559 11.7609C9.49273 11.6338 9.57334 11.4676 9.5944 11.2891L9.6 11.1956L9.5944 11.102C9.57527 10.9389 9.50635 10.7855 9.39699 10.6629C9.28764 10.5403 9.14316 10.4543 8.9832 10.4167L8.8936 10.4007L8.8 10.3959V7.99684L8.7944 7.90327C8.77334 7.72477 8.69273 7.55856 8.56559 7.43147C8.43844 7.30437 8.27217 7.2238 8.0936 7.20275L8 7.19715ZM8.008 4.7981L7.9064 4.8037C7.71196 4.82682 7.53275 4.92042 7.40273 5.06677C7.2727 5.21312 7.20089 5.40205 7.20089 5.59779C7.20089 5.79352 7.2727 5.98245 7.40273 6.1288C7.53275 6.27515 7.71196 6.36875 7.9064 6.39187L8 6.39747L8.1016 6.39187C8.29604 6.36875 8.47524 6.27515 8.60527 6.1288C8.73529 5.98245 8.80711 5.79352 8.80711 5.59779C8.80711 5.40205 8.73529 5.21312 8.60527 5.06677C8.47524 4.92042 8.29604 4.82682 8.1016 4.8037L8.008 4.7981Z" fill="#7854f7"/>
</svg>
