<svg width="19" height="21" viewBox="0 0 19 21" fill="none" xmlns="http://www.w3.org/2000/svg">
<path d="M18 14.5H15.4415C14.7458 14.5 14.3979 14.5 14.136 14.6888C13.8742 14.8775 13.7642 15.2075 13.5442 15.8675L13.4558 16.1325C13.2358 16.7925 13.1258 17.1225 12.864 17.3112C12.6021 17.5 12.2542 17.5 11.5585 17.5H7.44152C6.7458 17.5 6.39794 17.5 6.13605 17.3112C5.87416 17.1225 5.76416 16.7925 5.54415 16.1325L5.45585 15.8675C5.23584 15.2075 5.12584 14.8775 4.86395 14.6888C4.60206 14.5 4.2542 14.5 3.55848 14.5H1M13.6667 15.5H5.33333" stroke="#A8A8A8"/>
<path d="M18 10.5H15.4415C14.7458 10.5 14.3979 10.5 14.136 10.6888C13.8742 10.8775 13.7642 11.2075 13.5442 11.8675L13.4558 12.1325C13.2358 12.7925 13.1258 13.1225 12.864 13.3112C12.6021 13.5 12.2542 13.5 11.5585 13.5H7.44152C6.7458 13.5 6.39794 13.5 6.13605 13.3112C5.87416 13.1225 5.76416 12.7925 5.54415 12.1325L5.45585 11.8675C5.23584 11.2075 5.12584 10.8775 4.86395 10.6888C4.60206 10.5 4.2542 10.5 3.55848 10.5H1M13.6667 11.5H5.33333" stroke="#A8A8A8"/>
<path d="M15 11V4.66274C15 4.41815 15 4.29586 14.9724 4.18077C14.9479 4.07873 14.9075 3.98119 14.8526 3.89172C14.7908 3.7908 14.7043 3.70432 14.5314 3.53137L12.4686 1.46863C12.2957 1.29568 12.2092 1.2092 12.1083 1.14736C12.0188 1.09253 11.9213 1.05213 11.8192 1.02763C11.7041 1 11.5818 1 11.3373 1H6.4C5.55992 1 5.13988 1 4.81901 1.16349C4.53677 1.3073 4.3073 1.53677 4.16349 1.81901C4 2.13988 4 2.55992 4 3.4V11" stroke="#A8A8A8"/>
<path d="M11 1L11 3.4C11 3.96005 11 4.24008 11.109 4.45399C11.2049 4.64215 11.3578 4.79513 11.546 4.89101C11.7599 5 12.0399 5 12.6 5L15 5" stroke="#A8A8A8"/>
<path d="M4 5.5L1.84353 7.65647C1.53222 7.96778 1.37656 8.12344 1.26525 8.30509C1.16656 8.46614 1.09383 8.64172 1.04973 8.82538C1 9.03254 1 9.25267 1 9.69293V17.62C1 18.6281 1 19.1321 1.19619 19.5172C1.36876 19.8559 1.64413 20.1312 1.98282 20.3038C2.36786 20.5 2.87191 20.5 3.88 20.5H15.12C16.1281 20.5 16.6321 20.5 17.0172 20.3038C17.3559 20.1312 17.6312 19.8559 17.8038 19.5172C18 19.1321 18 18.6281 18 17.62V9.69294C18 9.25267 18 9.03254 17.9503 8.82538C17.9062 8.64172 17.8334 8.46614 17.7348 8.30509C17.6234 8.12344 17.4678 7.96778 17.1565 7.65647L15 5.5" stroke="#A8A8A8"/>
</svg>
