<svg width="21" height="17" viewBox="0 0 21 17" fill="none" xmlns="http://www.w3.org/2000/svg">
<path d="M1 1H20" stroke="#A8A8A8" stroke-linecap="round"/>
<path d="M4 1H17V12.3373C17 12.5818 17 12.7041 16.9724 12.8192C16.9479 12.9213 16.9075 13.0188 16.8526 13.1083C16.7908 13.2092 16.7043 13.2957 16.5314 13.4686L14.4686 15.5314C14.2957 15.7043 14.2092 15.7908 14.1083 15.8526C14.0188 15.9075 13.9213 15.9479 13.8192 15.9724C13.7041 16 13.5818 16 13.3373 16H6.4C5.55992 16 5.13988 16 4.81901 15.8365C4.53677 15.6927 4.3073 15.4632 4.16349 15.181C4 14.8601 4 14.4401 4 13.6V1Z" stroke="#A8A8A8" stroke-linecap="round"/>
<path d="M10.5 10V4.5" stroke="#A8A8A8" stroke-linecap="round"/>
<path d="M8 6L10.4063 4.07496C10.4611 4.03114 10.5389 4.03114 10.5937 4.07496L13 6" stroke="#A8A8A8" stroke-linecap="round"/>
<path d="M17 12H14.6C14.0399 12 13.7599 12 13.546 12.109C13.3578 12.2049 13.2049 12.3578 13.109 12.546C13 12.7599 13 13.0399 13 13.6V16" stroke="#A8A8A8"/>
</svg>
