<svg width="15" height="16" viewBox="0 0 15 16" fill="none" xmlns="http://www.w3.org/2000/svg">
<path d="M7.76511 0C6.35914 0.000266132 4.97961 0.393658 3.77368 1.13821C2.56774 1.88276 1.58064 2.95055 0.917666 4.22767C0.254693 5.50478 -0.0592841 6.94332 0.00922828 8.38984C0.0777406 9.83635 0.526172 11.2366 1.30669 12.4411C2.0872 13.6457 3.17053 14.6095 4.44109 15.2296C5.71166 15.8497 7.12182 16.1029 8.52114 15.9621C9.92045 15.8214 11.2564 15.2921 12.3866 14.4306C13.5167 13.5691 14.3987 12.4077 14.9383 11.0704C15.2031 10.4144 14.5686 9.7552 13.9302 10.0224C12.836 10.4789 11.6211 10.526 10.4967 10.1555C9.37233 9.78503 8.40955 9.02034 7.77578 7.99441C7.14202 6.96849 6.87735 5.74622 7.02779 4.54012C7.17823 3.33402 7.73427 2.22037 8.59923 1.3928L8.65904 1.3288C9.08697 0.8248 8.7468 0.00640001 8.07033 0.00640001H7.86374L7.81093 0.00159998L7.76433 0H7.76511Z" fill="#1F1F1F"/>
</svg>
