<svg width="29" height="28" viewBox="0 0 29 28" fill="none" xmlns="http://www.w3.org/2000/svg">
<path d="M28 14.5C28 10.9196 26.5777 7.4858 24.0459 4.95406C21.5142 2.42232 18.0804 1 14.5 1C10.9196 1 7.4858 2.42232 4.95406 4.95406C2.42232 7.4858 1 10.9196 1 14.5L8.50759 14.5C8.50759 12.9107 9.13893 11.3865 10.2627 10.2627C11.3865 9.13893 12.9107 8.50759 14.5 8.50759C16.0893 8.50759 17.6135 9.13893 18.7373 10.2627C19.8611 11.3865 20.4924 12.9107 20.4924 14.5H28Z" stroke="#A8A8A8"/>
<path d="M14.5 1L14.5 8.5" stroke="#A8A8A8"/>
<path d="M24.0469 4.95312L19.0007 9.99928" stroke="#A8A8A8"/>
<path d="M4.95312 4.95312L9.99931 9.99931" stroke="#A8A8A8"/>
</svg>
